<?xml version="1.0" standalone="no"?>
<!DOCTYPE svg PUBLIC "-//W3C//DTD SVG 1.1//EN" "http://www.w3.org/Graphics/SVG/1.1/DTD/svg11.dtd">
<svg xmlns="http://www.w3.org/2000/svg" xmlns:xlink="http://www.w3.org/1999/xlink" width="375" zoomAndPan="magnify" viewBox="0 0 375 374.999991" height="375" preserveAspectRatio="xMidYMid meet" version="1.0"><defs><filter x="0%" y="0%" width="100%" height="100%" id="46665b5b0e"><feColorMatrix values="0 0 0 0 1 0 0 0 0 1 0 0 0 0 1 0 0 0 1 0" color-interpolation-filters="sRGB"/></filter><clipPath id="9a73272c26"><path d="M 0.519531 0.71875 L 292.839844 0.71875 L 292.839844 254.398438 L 0.519531 254.398438 Z M 0.519531 0.71875 " clip-rule="nonzero"/></clipPath><mask id="1ed114c6be"><g filter="url(#46665b5b0e)"><rect x="-123.5" width="540" fill="#000000" y="-142.499998" height="539.999987" fill-opacity="0.4"/></g></mask><clipPath id="fec03635d9"><path d="M 0.597656 0.765625 L 292.679688 0.765625 L 292.679688 254.234375 L 0.597656 254.234375 Z M 0.597656 0.765625 " clip-rule="nonzero"/></clipPath><clipPath id="892cd7dcfc"><path d="M 11.847656 0.765625 L 281.152344 0.765625 C 287.367188 0.765625 292.402344 5.800781 292.402344 12.015625 L 292.402344 242.984375 C 292.402344 249.199219 287.367188 254.234375 281.152344 254.234375 L 11.847656 254.234375 C 5.632812 254.234375 0.597656 249.199219 0.597656 242.984375 L 0.597656 12.015625 C 0.597656 5.800781 5.632812 0.765625 11.847656 0.765625 Z M 11.847656 0.765625 " clip-rule="nonzero"/></clipPath><clipPath id="ad81e94baa"><path d="M 0.597656 0.765625 L 292.601562 0.765625 L 292.601562 254.234375 L 0.597656 254.234375 Z M 0.597656 0.765625 " clip-rule="nonzero"/></clipPath><clipPath id="951c0c1824"><path d="M 11.847656 0.765625 L 281.152344 0.765625 C 287.367188 0.765625 292.402344 5.800781 292.402344 12.015625 L 292.402344 242.984375 C 292.402344 249.199219 287.367188 254.234375 281.152344 254.234375 L 11.847656 254.234375 C 5.632812 254.234375 0.597656 249.199219 0.597656 242.984375 L 0.597656 12.015625 C 0.597656 5.800781 5.632812 0.765625 11.847656 0.765625 Z M 11.847656 0.765625 " clip-rule="nonzero"/></clipPath><clipPath id="b528dfde62"><rect x="0" width="293" y="0" height="255"/></clipPath><clipPath id="11153c0aca"><rect x="0" width="293" y="0" height="255"/></clipPath><clipPath id="2a7456819b"><path d="M 35.859375 24.238281 L 255 24.238281 L 255 227 L 35.859375 227 Z M 35.859375 24.238281 " clip-rule="nonzero"/></clipPath><clipPath id="e0b8879432"><rect x="0" width="293" y="0" height="255"/></clipPath></defs><g transform="matrix(1, 0, 0, 1, 41, 60)"><g clip-path="url(#e0b8879432)"><g clip-path="url(#9a73272c26)"><g mask="url(#1ed114c6be)"><g transform="matrix(1, 0, 0, 1, -0.000000000000007105, 0)"><g clip-path="url(#11153c0aca)"><g clip-path="url(#fec03635d9)"><g clip-path="url(#892cd7dcfc)"><g transform="matrix(1, 0, 0, 1, -0.000000000000007105, 0)"><g clip-path="url(#b528dfde62)"><g clip-path="url(#ad81e94baa)"><g clip-path="url(#951c0c1824)"><path fill="#17320b" d="M 0.597656 0.765625 L 292.679688 0.765625 L 292.679688 254.234375 L 0.597656 254.234375 Z M 0.597656 0.765625 " fill-opacity="1" fill-rule="nonzero"/></g></g></g></g></g></g></g></g></g></g><g clip-path="url(#2a7456819b)"><path fill="#ffffff" d="M 35.859375 206.824219 C 35.859375 219.519531 41.984375 226.007812 54.871094 226.007812 L 179.105469 226.007812 C 191.921875 226.007812 198.042969 219.519531 198.042969 206.824219 L 198.042969 43.628906 C 198.042969 30.933594 191.921875 24.441406 179.105469 24.441406 L 160.664062 24.441406 C 147.78125 24.441406 141.65625 30.933594 141.65625 43.628906 L 141.65625 81.003906 C 139.59375 80.359375 137.242188 80.003906 134.609375 80.003906 L 94.3125 80.003906 C 91.605469 80.003906 89.257812 80.359375 87.191406 81.003906 L 87.191406 67.949219 C 87.191406 55.183594 81.070312 48.765625 68.253906 48.765625 L 54.871094 48.765625 C 41.984375 48.765625 35.859375 55.183594 35.859375 67.949219 Z M 47.75 205.824219 L 47.75 68.804688 C 47.75 63.457031 50.457031 60.675781 56.082031 60.675781 L 67.042969 60.675781 C 72.667969 60.675781 75.304688 63.457031 75.304688 68.804688 L 75.304688 214.097656 L 56.082031 214.097656 C 50.457031 214.097656 47.75 211.316406 47.75 205.824219 Z M 87.191406 214.097656 L 87.191406 100.117188 C 87.191406 94.699219 89.898438 91.917969 95.523438 91.917969 L 133.328125 91.917969 C 139.023438 91.917969 141.65625 94.699219 141.65625 100.117188 L 141.65625 214.097656 Z M 153.546875 214.097656 L 153.546875 44.554688 C 153.546875 39.132812 156.179688 36.351562 161.804688 36.351562 L 177.824219 36.351562 C 183.519531 36.351562 186.152344 39.132812 186.152344 44.554688 L 186.152344 205.824219 C 186.152344 211.316406 183.519531 214.097656 177.824219 214.097656 Z M 96.019531 109.460938 C 96.019531 112.242188 98.15625 114.453125 101.074219 114.453125 L 127.84375 114.453125 C 130.691406 114.453125 132.828125 112.242188 132.828125 109.460938 C 132.828125 106.75 130.691406 104.613281 127.84375 104.613281 L 101.074219 104.613281 C 98.15625 104.613281 96.019531 106.75 96.019531 109.460938 Z M 96.019531 196.480469 C 96.019531 199.261719 98.15625 201.472656 101.074219 201.472656 L 127.84375 201.472656 C 130.691406 201.472656 132.828125 199.261719 132.828125 196.480469 C 132.828125 193.769531 130.691406 191.628906 127.84375 191.628906 L 101.074219 191.628906 C 98.15625 191.628906 96.019531 193.769531 96.019531 196.480469 Z M 206.375 209.246094 C 207.867188 221.800781 214.488281 227.792969 227.304688 226.082031 L 237.628906 224.867188 C 250.441406 223.15625 255.710938 216.378906 254.289062 203.683594 L 239.265625 65.597656 C 237.84375 52.972656 231.078125 46.910156 218.261719 48.691406 L 207.941406 49.90625 C 195.054688 51.6875 189.714844 58.464844 191.207031 71.089844 Z M 217.976562 206.824219 L 203.167969 70.589844 C 202.601562 65.167969 204.949219 62.316406 210.574219 61.601562 L 218.40625 60.675781 C 224.03125 59.890625 227.019531 62.53125 227.589844 67.808594 L 242.398438 204.113281 C 243.039062 209.605469 240.691406 212.457031 235.066406 213.171875 L 227.089844 214.097656 C 221.539062 214.882812 218.621094 212.316406 217.976562 206.824219 Z M 217.976562 206.824219 " fill-opacity="0.85" fill-rule="nonzero"/></g></g></g></svg>